<svg version="1.1" class="can-badge can-alert " viewBox="0 0 36 36" preserveAspectRatio="xMidYMid meet" xmlns="http://www.w3.org/2000/svg" xmlns:xlink="http://www.w3.org/1999/xlink" focusable="false" role="img" width="91" height="91" fill="#000000"><path d="M30.31,13c0-.1,0-.21,0-.32a10.26,10.26,0,0,0-10.45-10,10.47,10.47,0,0,0-9.6,6.1A9.65,9.65,0,0,0,10.89,28a3,3,0,0,1,0-2A7.65,7.65,0,0,1,11,10.74l.67,0,.23-.63a8.43,8.43,0,0,1,8-5.4,8.26,8.26,0,0,1,8.45,8,7.75,7.75,0,0,1,0,.8l-.08.72.65.3A6,6,0,0,1,26.38,26H25.09a3,3,0,0,1,0,2h1.28a8,8,0,0,0,3.93-15Z" class="clr-i-outline clr-i-outline-path-1"/><path d="M22.28,26.07a1,1,0,0,0-.71.29L19,28.94V16.68a1,1,0,1,0-2,0V28.94l-2.57-2.57A1,1,0,0,0,13,27.78l5,5,5-5a1,1,0,0,0-.71-1.71Z" class="clr-i-outline clr-i-outline-path-2"/><path d="M22.28,26.07a1,1,0,0,0-.71.29L19,28.94V16.68a1,1,0,1,0-2,0V28.94l-2.57-2.57A1,1,0,0,0,13,27.78l5,5,5-5a1,1,0,0,0-.71-1.71Z" class="clr-i-outline--alerted clr-i-outline-path-1--alerted" style="display:none"/><path d="M19.87,4.69a8.81,8.81,0,0,1,2,.25l1-1.8a10.8,10.8,0,0,0-3.07-.45,10.47,10.47,0,0,0-9.6,6.1A9.65,9.65,0,0,0,10.89,28a3,3,0,0,1,0-2A7.65,7.65,0,0,1,11,10.74l.67,0,.23-.63A8.43,8.43,0,0,1,19.87,4.69Z" class="clr-i-outline--alerted clr-i-outline-path-2--alerted" style="display:none"/><path d="M32.9,15.4H30.21A6,6,0,0,1,26.38,26H25.09a3,3,0,0,1,0,2h1.28A8,8,0,0,0,32.9,15.4Z" class="clr-i-outline--alerted clr-i-outline-path-3--alerted" style="display:none"/><path d="M26.85,1.14,21.13,11A1.28,1.28,0,0,0,22.23,13H33.68A1.28,1.28,0,0,0,34.78,11L29.06,1.14A1.28,1.28,0,0,0,26.85,1.14Z" class="clr-i-outline--alerted clr-i-outline-path-4--alerted clr-i-alert" style="display:none"/><path d="M22.28,26.07a1,1,0,0,0-.71.29L19,28.94V16.68a1,1,0,1,0-2,0V28.94l-2.57-2.57A1,1,0,0,0,13,27.78l5,5,5-5a1,1,0,0,0-.71-1.71Z" class="clr-i-outline--badged clr-i-outline-path-1--badged" style="display:none"/><path d="M19.87,4.69a8.79,8.79,0,0,1,2.68.42,7.45,7.45,0,0,1,.5-1.94,10.79,10.79,0,0,0-3.18-.48,10.47,10.47,0,0,0-9.6,6.1A9.65,9.65,0,0,0,10.89,28a3,3,0,0,1,0-2A7.65,7.65,0,0,1,11,10.74l.67,0,.23-.63A8.43,8.43,0,0,1,19.87,4.69Z" class="clr-i-outline--badged clr-i-outline-path-2--badged" style="display:none"/><path d="M30.92,13.44a7.13,7.13,0,0,1-2.63-.14c0,.08,0,.15,0,.23l-.08.72.65.3A6,6,0,0,1,26.38,26H25.09a3,3,0,0,1,0,2h1.28a8,8,0,0,0,4.54-14.61Z" class="clr-i-outline--badged clr-i-outline-path-3--badged" style="display:none"/><circle cx="30" cy="6" r="5" class="clr-i-outline--badged clr-i-outline-path-4--badged clr-i-badge" style="display:none"/></svg>