<svg version="1.1" class="can-badge can-alert " viewBox="0 0 36 36" preserveAspectRatio="xMidYMid meet" xmlns="http://www.w3.org/2000/svg" xmlns:xlink="http://www.w3.org/1999/xlink" focusable="false" role="img" width="91" height="91" fill="#000000"><path class="clr-i-outline clr-i-outline-path-1" d="M30.92,8H26.55a1,1,0,0,0,0,2H31V30H5V10H9.38a1,1,0,0,0,0-2H5.08A2,2,0,0,0,3,10V30a2,2,0,0,0,2.08,2H30.92A2,2,0,0,0,33,30V10A2,2,0,0,0,30.92,8Z"/><path class="clr-i-outline clr-i-outline-path-2" d="M10.3,18.87l7,6.89a1,1,0,0,0,1.4,0l7-6.89a1,1,0,0,0-1.4-1.43L19,22.65V4a1,1,0,0,0-2,0V22.65l-5.3-5.21a1,1,0,0,0-1.4,1.43Z"/><path class="clr-i-outline--badged clr-i-outline-path-1--badged" d="M10.3,18.87l7,6.89a1,1,0,0,0,1.4,0l7-6.89a1,1,0,0,0-1.4-1.43L19,22.65V4a1,1,0,0,0-2,0V22.65l-5.3-5.21a1,1,0,0,0-1.4,1.43Z" style="display:none"/><path d="M31,13.43V30H5V10H9.38a1,1,0,0,0,0-2H5.08A2,2,0,0,0,3,10V30a2,2,0,0,0,2.08,2H30.92A2,2,0,0,0,33,30V12.87A7.45,7.45,0,0,1,31,13.43Z"/><path class="clr-i-outline--alerted clr-i-outline-path-1--alerted" d="M10.3,18.87l7,6.89a1,1,0,0,0,1.4,0l7-6.89a1,1,0,0,0-1.4-1.43L19,22.65V4a1,1,0,0,0-2,0V22.65l-5.3-5.21a1,1,0,0,0-1.4,1.43Z" style="display:none"/><path class="clr-i-outline--alerted clr-i-outline-path-2--alerted" d="M31,15.4V30H5V10H9.38a1,1,0,0,0,0-2H5.08A2,2,0,0,0,3,10V30a2,2,0,0,0,2.08,2H30.92A2,2,0,0,0,33,30V15.4Z" style="display:none"/><path class="clr-i-outline--alerted clr-i-outline-path-3--alerted clr-i-alert" d="M26.85,1.14,21.13,11A1.28,1.28,0,0,0,22.23,13H33.68A1.28,1.28,0,0,0,34.78,11L29.06,1.14A1.28,1.28,0,0,0,26.85,1.14Z" style="display:none"/><circle class="clr-i-outline--badged clr-i-outline-path-2--badged clr-i-badge" cx="30" cy="6" r="5" style="display:none"/></svg>